<?xml version="1.0" encoding="utf-8"?>
<!-- Generator: Adobe Illustrator 21.1.0, SVG Export Plug-In . SVG Version: 6.00 Build 0)  -->
<svg version="1.1" id="Layer_1" xmlns="http://www.w3.org/2000/svg" xmlns:xlink="http://www.w3.org/1999/xlink" x="0px" y="0px"
	 viewBox="0 0 595.3 878.7" style="enable-background:new 0 0 595.3 878.7;" xml:space="preserve">
<style type="text/css">
	.st0{fill:none;stroke:#0000FF;stroke-width:1.000000e-02;stroke-miterlimit:10;}
	.st1{fill:none;stroke:#000000;stroke-width:1.000000e-02;stroke-miterlimit:10;}
	.st2{fill:#FFFFFF;stroke:#000000;stroke-width:1.000000e-02;stroke-miterlimit:10;}
</style>
<path class="st0" d="M43.5,834.4c0.2,0,0.3,0.1,0.3,0.3 M43.8,834.7v-8.5c0,0.2-0.1,0.3-0.3,0.3 M43.5,826.4h17
	c-0.2,0-0.3-0.1-0.3-0.3 M60.2,826.2v8.5c0-0.2,0.1-0.3,0.3-0.3 M60.5,834.4h-17"/>
<path class="st0" d="M77.5,834.4c0.2,0,0.3,0.1,0.3,0.3 M77.8,834.7v-8.5c0,0.2-0.1,0.3-0.3,0.3 M77.5,826.4h17
	c-0.2,0-0.3-0.1-0.3-0.3 M94.2,826.2v8.5c0-0.2,0.1-0.3,0.3-0.3 M94.5,834.4h-17"/>
<path class="st0" d="M111.5,834.4c0.2,0,0.3,0.1,0.3,0.3 M111.8,834.7v-8.5c0,0.2-0.1,0.3-0.3,0.3 M111.5,826.4h17
	c-0.2,0-0.3-0.1-0.3-0.3 M128.3,826.2v8.5c0-0.2,0.1-0.3,0.3-0.3 M128.5,834.4h-17"/>
<path class="st0" d="M145.6,834.4c0.2,0,0.3,0.1,0.3,0.3 M145.8,834.7v-8.5c0,0.2-0.1,0.3-0.3,0.3 M145.6,826.4h17
	c-0.2,0-0.3-0.1-0.3-0.3 M162.3,826.2v8.5c0-0.2,0.1-0.3,0.3-0.3 M162.6,834.4h-17"/>
<path class="st1" d="M10.9,843.2h184.3 M195.2,843.2c0.2,0,0.3-0.1,0.3-0.3 M195.5,842.9v-17 M195.5,825.9v-18.4 M195.5,807.4
	c0,0.2-0.1,0.3-0.3,0.3 M195.2,807.7h8.5c0.2,0,0.3-0.1,0.3-0.3 M204,807.4v-17c0-0.2-0.1-0.3-0.3-0.3 M203.7,790.1h-8.5
	c0.2,0,0.3,0.1,0.3,0.3 M195.5,790.4v-17 M195.5,773.4c0,0.2-0.1,0.3-0.3,0.3 M195.2,773.7h8.5c0.2,0,0.3-0.1,0.3-0.3 M204,773.4
	v-17c0-0.2-0.1-0.3-0.3-0.3 M203.7,756.1h-8.5c0.2,0,0.3,0.1,0.3,0.3 M195.5,756.4v-17 M195.5,739.4c0,0.2-0.1,0.3-0.3,0.3
	 M195.2,739.7h8.5c0.2,0,0.3-0.1,0.3-0.3 M204,739.4v-17c0-0.2-0.1-0.3-0.3-0.3 M203.7,722.1h-8.5c0.2,0,0.3,0.1,0.3,0.3
	 M195.5,722.4v-17 M195.5,705.4c0,0.2-0.1,0.3-0.3,0.3 M195.2,705.7h8.5c0.2,0,0.3-0.1,0.3-0.3 M204,705.4v-17
	c0-0.2-0.1-0.3-0.3-0.3 M203.7,688.1h-8.5c0.2,0,0.3,0.1,0.3,0.3 M195.5,688.4V670 M195.5,670c0-0.2-0.1-0.3-0.3-0.3 M195.2,669.7
	L195.2,669.7 M195.2,669.7H10.9 M10.9,669.7c-0.2,0-0.3,0.1-0.3,0.3 M10.6,670L10.6,670 M10.6,670v18.4 M10.6,688.4
	c0-0.2,0.1-0.3,0.3-0.3 M10.9,688.1H2.4c-0.2,0-0.3,0.1-0.3,0.3 M2.1,688.4v17c0,0.2,0.1,0.3,0.3,0.3 M2.4,705.7h8.5
	c-0.2,0-0.3-0.1-0.3-0.3 M10.6,705.4v17 M10.6,722.4c0-0.2,0.1-0.3,0.3-0.3 M10.9,722.1H2.4c-0.2,0-0.3,0.1-0.3,0.3 M2.1,722.4v17
	c0,0.2,0.1,0.3,0.3,0.3 M2.4,739.7h8.5c-0.2,0-0.3-0.1-0.3-0.3 M10.6,739.4v17 M10.6,756.4c0-0.2,0.1-0.3,0.3-0.3 M10.9,756.1H2.4
	c-0.2,0-0.3,0.1-0.3,0.3 M2.1,756.4v17c0,0.2,0.1,0.3,0.3,0.3 M2.4,773.7h8.5c-0.2,0-0.3-0.1-0.3-0.3 M10.6,773.4v17 M10.6,790.4
	c0-0.2,0.1-0.3,0.3-0.3 M10.9,790.1H2.4c-0.2,0-0.3,0.1-0.3,0.3 M2.1,790.4v17c0,0.2,0.1,0.3,0.3,0.3 M2.4,807.7h8.5
	c-0.2,0-0.3-0.1-0.3-0.3 M10.6,807.4v18.4 M10.6,825.9v17c0,0.2,0.1,0.3,0.3,0.3 M10.9,843.2L10.9,843.2"/>
<path class="st0" d="M241.1,834.4c0.2,0,0.3,0.1,0.3,0.3 M241.4,834.7v-8.5c0,0.2-0.1,0.3-0.3,0.3 M241.1,826.4h17
	c-0.2,0-0.3-0.1-0.3-0.3 M257.8,826.2v8.5c0-0.2,0.1-0.3,0.3-0.3 M258.1,834.4h-17"/>
<path class="st0" d="M275.1,834.4c0.2,0,0.3,0.1,0.3,0.3 M275.4,834.7v-8.5c0,0.2-0.1,0.3-0.3,0.3 M275.1,826.4h17
	c-0.2,0-0.3-0.1-0.3-0.3 M291.8,826.2v8.5c0-0.2,0.1-0.3,0.3-0.3 M292.1,834.4h-17"/>
<path class="st0" d="M309.1,834.4c0.2,0,0.3,0.1,0.3,0.3 M309.4,834.7v-8.5c0,0.2-0.1,0.3-0.3,0.3 M309.1,826.4h17
	c-0.2,0-0.3-0.1-0.3-0.3 M325.8,826.2v8.5c0-0.2,0.1-0.3,0.3-0.3 M326.1,834.4h-17"/>
<path class="st0" d="M343.1,834.4c0.2,0,0.3,0.1,0.3,0.3 M343.4,834.7v-8.5c0,0.2-0.1,0.3-0.3,0.3 M343.1,826.4h17
	c-0.2,0-0.3-0.1-0.3-0.3 M359.8,826.2v8.5c0-0.2,0.1-0.3,0.3-0.3 M360.1,834.4h-17"/>
<path class="st0" d="M377.2,834.4c0.2,0,0.3,0.1,0.3,0.3 M377.4,834.7v-8.5c0,0.2-0.1,0.3-0.3,0.3 M377.1,826.4h17
	c-0.2,0-0.3-0.1-0.3-0.3 M393.9,826.2v8.5c0-0.2,0.1-0.3,0.3-0.3 M394.1,834.4h-17"/>
<path class="st0" d="M411.2,834.4c0.2,0,0.3,0.1,0.3,0.3 M411.4,834.7v-8.5c0,0.2-0.1,0.3-0.3,0.3 M411.2,826.4h17
	c-0.2,0-0.3-0.1-0.3-0.3 M427.9,826.2v8.5c0-0.2,0.1-0.3,0.3-0.3 M428.2,834.4h-17"/>
<path class="st0" d="M445.2,834.4c0.2,0,0.3,0.1,0.3,0.3 M445.5,834.7v-8.5c0,0.2-0.1,0.3-0.3,0.3 M445.2,826.4h17
	c-0.2,0-0.3-0.1-0.3-0.3 M461.9,826.2v8.5c0-0.2,0.1-0.3,0.3-0.3 M462.2,834.4h-17"/>
<path class="st1" d="M217,843.2h269.3 M486.3,843.2h8.5c0.2,0,0.3-0.1,0.3-0.3 M495.1,842.9v-17 M495.1,825.9v-18.4 M495.1,807.4
	c0-0.2-0.1-0.3-0.3-0.3 M494.8,807.2h-8.5c0.2,0,0.3,0.1,0.3,0.3 M486.6,807.4v-17c0,0.2-0.1,0.3-0.3,0.3 M486.3,790.7h8.5
	c0.2,0,0.3-0.1,0.3-0.3 M495.1,790.4v-17 M495.1,773.4c0-0.2-0.1-0.3-0.3-0.3 M494.8,773.1h-8.5c0.2,0,0.3,0.1,0.3,0.3 M486.6,773.4
	v-17c0,0.2-0.1,0.3-0.3,0.3 M486.3,756.7h8.5c0.2,0,0.3-0.1,0.3-0.3 M495.1,756.4v-17 M495.1,739.4c0-0.2-0.1-0.3-0.3-0.3
	 M494.8,739.1h-8.5c0.2,0,0.3,0.1,0.3,0.3 M486.6,739.4v-17c0,0.2-0.1,0.3-0.3,0.3 M486.3,722.7h8.5c0.2,0,0.3-0.1,0.3-0.3
	 M495.1,722.4v-17 M495.1,705.4c0-0.2-0.1-0.3-0.3-0.3 M494.8,705.1h-8.5c0.2,0,0.3,0.1,0.3,0.3 M486.6,705.4v-17
	c0,0.2-0.1,0.3-0.3,0.3 M486.3,688.7h8.5c0.2,0,0.3-0.1,0.3-0.3 M495.1,688.4V670 M495.1,670c0-0.2-0.1-0.3-0.3-0.3 M494.8,669.7
	h-8.5"/>
<path class="st0" d="M482.9,661c-0.2,0-0.3-0.1-0.3-0.3 M482.6,660.7v9.4c0-0.2,0.1-0.3,0.3-0.3 M482.9,669.8h-3.4
	c0.2,0,0.3,0.1,0.3,0.3 M479.8,670.1v-9.4c0,0.2-0.1,0.3-0.3,0.3 M479.5,661h3.4"/>
<path class="st1" d="M486.3,669.7h-0.4c0.2,0,0.3,0.1,0.3,0.3 M486.2,670v-9c0,0.2-0.1,0.3-0.3,0.3 M485.9,661.3h8.9
	c0.2,0,0.3-0.1,0.3-0.3 M495.1,661v-8c0-0.2-0.1-0.3-0.3-0.3 M494.8,652.7H259.5c-0.2,0-0.3,0.1-0.3,0.3 M259.2,653v17.4
	c0-0.2,0.1-0.3,0.3-0.3 M259.5,670.1h-34.4c0.2,0,0.3,0.1,0.3,0.3 M225.4,670.4v-8.9c0,0.2-0.1,0.3-0.3,0.3 M225.1,661.7h17
	c0.2,0,0.3-0.1,0.3-0.3 M242.4,661.5V653c0-0.2-0.1-0.3-0.3-0.3 M242.1,652.7H217 M217,652.7h-8.5c-0.2,0-0.3,0.1-0.3,0.3
	 M208.2,653v17 M208.2,670v18.4 M208.2,688.4c0,0.2,0.1,0.3,0.3,0.3 M208.5,688.7h8.5c-0.2,0-0.3-0.1-0.3-0.3 M216.7,688.4v17
	c0-0.2,0.1-0.3,0.3-0.3 M217,705.1h-8.5c-0.2,0-0.3,0.1-0.3,0.3 M208.2,705.4v17 M208.2,722.4c0,0.2,0.1,0.3,0.3,0.3 M208.5,722.7
	h8.5c-0.2,0-0.3-0.1-0.3-0.3 M216.7,722.4v17c0-0.2,0.1-0.3,0.3-0.3 M217,739.1h-8.5c-0.2,0-0.3,0.1-0.3,0.3 M208.2,739.4v17
	 M208.2,756.4c0,0.2,0.1,0.3,0.3,0.3 M208.5,756.7h8.5c-0.2,0-0.3-0.1-0.3-0.3 M216.7,756.4v17c0-0.2,0.1-0.3,0.3-0.3 M217,773.1
	h-8.5c-0.2,0-0.3,0.1-0.3,0.3 M208.2,773.4v17 M208.2,790.4c0,0.2,0.1,0.3,0.3,0.3 M208.5,790.7h8.5c-0.2,0-0.3-0.1-0.3-0.3
	 M216.7,790.4v17c0-0.2,0.1-0.3,0.3-0.3 M217,807.2h-8.5c-0.2,0-0.3,0.1-0.3,0.3 M208.2,807.4v18.4 M208.2,825.9v17
	c0,0.2,0.1,0.3,0.3,0.3 M208.5,843.2h8.5"/>
<path class="st0" d="M241.1,639.6c0.2,0,0.3,0.1,0.3,0.3 M241.4,639.9v-8.5c0,0.2-0.1,0.3-0.3,0.3 M241.1,631.7h17
	c-0.2,0-0.3-0.1-0.3-0.3 M257.8,631.4v8.5c0-0.2,0.1-0.3,0.3-0.3 M258.1,639.6h-17"/>
<path class="st0" d="M275.1,639.6c0.2,0,0.3,0.1,0.3,0.3 M275.4,639.9v-8.5c0,0.2-0.1,0.3-0.3,0.3 M275.1,631.7h17
	c-0.2,0-0.3-0.1-0.3-0.3 M291.8,631.4v8.5c0-0.2,0.1-0.3,0.3-0.3 M292.1,639.6h-17"/>
<path class="st0" d="M309.1,639.6c0.2,0,0.3,0.1,0.3,0.3 M309.4,639.9v-8.5c0,0.2-0.1,0.3-0.3,0.3 M309.1,631.7h17
	c-0.2,0-0.3-0.1-0.3-0.3 M325.8,631.4v8.5c0-0.2,0.1-0.3,0.3-0.3 M326.1,639.6h-17"/>
<path class="st0" d="M343.1,639.6c0.2,0,0.3,0.1,0.3,0.3 M343.4,639.9v-8.5c0,0.2-0.1,0.3-0.3,0.3 M343.1,631.7h17
	c-0.2,0-0.3-0.1-0.3-0.3 M359.8,631.4v8.5c0-0.2,0.1-0.3,0.3-0.3 M360.1,639.6h-17"/>
<path class="st0" d="M377.2,639.6c0.2,0,0.3,0.1,0.3,0.3 M377.4,639.9v-8.5c0,0.2-0.1,0.3-0.3,0.3 M377.1,631.7h17
	c-0.2,0-0.3-0.1-0.3-0.3 M393.9,631.4v8.5c0-0.2,0.1-0.3,0.3-0.3 M394.1,639.6h-17"/>
<path class="st0" d="M411.2,639.6c0.2,0,0.3,0.1,0.3,0.3 M411.4,639.9v-8.5c0,0.2-0.1,0.3-0.3,0.3 M411.2,631.7h17
	c-0.2,0-0.3-0.1-0.3-0.3 M427.9,631.4v8.5c0-0.2,0.1-0.3,0.3-0.3 M428.2,639.6h-17"/>
<path class="st0" d="M445.2,639.6c0.2,0,0.3,0.1,0.3,0.3 M445.5,639.9v-8.5c0,0.2-0.1,0.3-0.3,0.3 M445.2,631.7h17
	c-0.2,0-0.3-0.1-0.3-0.3 M461.9,631.4v8.5c0-0.2,0.1-0.3,0.3-0.3 M462.2,639.6h-17"/>
<path class="st1" d="M217,648.4h269.3 M486.3,648.4h8.5c0.2,0,0.3-0.1,0.3-0.3 M495.1,648.1v-17 M495.1,631.1v-18.4 M495.1,612.7
	c0-0.2-0.1-0.3-0.3-0.3 M494.8,612.4h-8.5c0.2,0,0.3,0.1,0.3,0.3 M486.6,612.7v-17c0,0.2-0.1,0.3-0.3,0.3 M486.3,596h8.5
	c0.2,0,0.3-0.1,0.3-0.3 M495.1,595.7v-17 M495.1,578.7c0-0.2-0.1-0.3-0.3-0.3 M494.8,578.4h-8.5c0.2,0,0.3,0.1,0.3,0.3 M486.6,578.7
	v-17c0,0.2-0.1,0.3-0.3,0.3 M486.3,562h8.5c0.2,0,0.3-0.1,0.3-0.3 M495.1,561.7v-17 M495.1,544.7c0-0.2-0.1-0.3-0.3-0.3
	 M494.8,544.4h-8.5c0.2,0,0.3,0.1,0.3,0.3 M486.6,544.7v-17c0,0.2-0.1,0.3-0.3,0.3 M486.3,528h8.5c0.2,0,0.3-0.1,0.3-0.3
	 M495.1,527.7v-17 M495.1,510.7c0-0.2-0.1-0.3-0.3-0.3 M494.8,510.4h-8.5c0.2,0,0.3,0.1,0.3,0.3 M486.6,510.7v-17
	c0,0.2-0.1,0.3-0.3,0.3 M486.3,493.9h8.5c0.2,0,0.3-0.1,0.3-0.3 M495.1,493.6v-18.4 M495.1,475.2v-17c0-0.2-0.1-0.3-0.3-0.3
	 M494.8,457.9h-8.5"/>
<path class="st0" d="M223.8,466.3c-0.2,0-0.3-0.1-0.3-0.3 M223.5,466v9.4c0-0.2,0.1-0.3,0.3-0.3 M223.8,475.1h-3.4
	c0.2,0,0.3,0.1,0.3,0.3 M220.7,475.4V466c0,0.2-0.1,0.3-0.3,0.3 M220.4,466.3h3.4"/>
<path class="st1" d="M486.3,457.9h-25.1c-0.2,0-0.3,0.1-0.3,0.3 M460.9,458.2v8.5c0,0.2,0.1,0.3,0.3,0.3 M461.2,467h17
	c-0.2,0-0.3-0.1-0.3-0.3 M477.9,466.7v8.9c0-0.2,0.1-0.3,0.3-0.3 M478.2,475.4h-34.4c0.2,0,0.3,0.1,0.3,0.3 M444.1,475.6v-17.4
	c0-0.2-0.1-0.3-0.3-0.3 M443.8,457.9H208.5c-0.2,0-0.3,0.1-0.3,0.3 M208.2,458.2v8.1c0,0.2,0.1,0.3,0.3,0.3 M208.5,466.6h8.9
	c-0.2,0-0.3-0.1-0.3-0.3 M217.1,466.3v8.9c0-0.2,0.1-0.3,0.3-0.3 M217.4,474.9H217 M217,474.9h-8.5c-0.2,0-0.3,0.1-0.3,0.3
	 M208.2,475.2L208.2,475.2 M208.2,475.2v18.4 M208.2,493.6c0,0.2,0.1,0.3,0.3,0.3 M208.5,493.9h8.5c-0.2,0-0.3-0.1-0.3-0.3
	 M216.7,493.6v17c0-0.2,0.1-0.3,0.3-0.3 M217,510.4h-8.5c-0.2,0-0.3,0.1-0.3,0.3 M208.2,510.7v17 M208.2,527.7
	c0,0.2,0.1,0.3,0.3,0.3 M208.5,528h8.5c-0.2,0-0.3-0.1-0.3-0.3 M216.7,527.7v17c0-0.2,0.1-0.3,0.3-0.3 M217,544.4h-8.5
	c-0.2,0-0.3,0.1-0.3,0.3 M208.2,544.7v17 M208.2,561.7c0,0.2,0.1,0.3,0.3,0.3 M208.5,562h8.5c-0.2,0-0.3-0.1-0.3-0.3 M216.7,561.7
	v17c0-0.2,0.1-0.3,0.3-0.3 M217,578.4h-8.5c-0.2,0-0.3,0.1-0.3,0.3 M208.2,578.7v17 M208.2,595.7c0,0.2,0.1,0.3,0.3,0.3 M208.5,596
	h8.5c-0.2,0-0.3-0.1-0.3-0.3 M216.7,595.7v17c0-0.2,0.1-0.3,0.3-0.3 M217,612.4h-8.5c-0.2,0-0.3,0.1-0.3,0.3 M208.2,612.7v18.4
	 M208.2,631.1v17c0,0.2,0.1,0.3,0.3,0.3 M208.5,648.4h8.5"/>
<path class="st0" d="M43.5,639.6c0.2,0,0.3,0.1,0.3,0.3 M43.8,639.9v-8.5c0,0.2-0.1,0.3-0.3,0.3 M43.5,631.7h17
	c-0.2,0-0.3-0.1-0.3-0.3 M60.2,631.4v8.5c0-0.2,0.1-0.3,0.3-0.3 M60.5,639.6h-17"/>
<path class="st0" d="M77.5,639.6c0.2,0,0.3,0.1,0.3,0.3 M77.8,639.9v-8.5c0,0.2-0.1,0.3-0.3,0.3 M77.5,631.7h17
	c-0.2,0-0.3-0.1-0.3-0.3 M94.2,631.4v8.5c0-0.2,0.1-0.3,0.3-0.3 M94.5,639.6h-17"/>
<path class="st0" d="M111.5,639.6c0.2,0,0.3,0.1,0.3,0.3 M111.8,639.9v-8.5c0,0.2-0.1,0.3-0.3,0.3 M111.5,631.7h17
	c-0.2,0-0.3-0.1-0.3-0.3 M128.3,631.4v8.5c0-0.2,0.1-0.3,0.3-0.3 M128.5,639.6h-17"/>
<path class="st0" d="M145.6,639.6c0.2,0,0.3,0.1,0.3,0.3 M145.8,639.9v-8.5c0,0.2-0.1,0.3-0.3,0.3 M145.6,631.7h17
	c-0.2,0-0.3-0.1-0.3-0.3 M162.3,631.4v8.5c0-0.2,0.1-0.3,0.3-0.3 M162.6,639.6h-17"/>
<path class="st1" d="M10.9,648.4h184.3 M195.2,648.4c0.2,0,0.3-0.1,0.3-0.3 M195.5,648.1v-17 M195.5,631.1v-18.4 M195.5,612.7
	c0,0.2-0.1,0.3-0.3,0.3 M195.2,613h8.5c0.2,0,0.3-0.1,0.3-0.3 M204,612.7v-17c0-0.2-0.1-0.3-0.3-0.3 M203.7,595.4h-8.5
	c0.2,0,0.3,0.1,0.3,0.3 M195.5,595.7v-17 M195.5,578.7c0,0.2-0.1,0.3-0.3,0.3 M195.2,579h8.5c0.2,0,0.3-0.1,0.3-0.3 M204,578.7v-17
	c0-0.2-0.1-0.3-0.3-0.3 M203.7,561.4h-8.5c0.2,0,0.3,0.1,0.3,0.3 M195.5,561.7v-17 M195.5,544.7c0,0.2-0.1,0.3-0.3,0.3 M195.2,545
	h8.5c0.2,0,0.3-0.1,0.3-0.3 M204,544.7v-17c0-0.2-0.1-0.3-0.3-0.3 M203.7,527.4h-8.5c0.2,0,0.3,0.1,0.3,0.3 M195.5,527.7v-17
	 M195.5,510.7c0,0.2-0.1,0.3-0.3,0.3 M195.2,510.9h8.5c0.2,0,0.3-0.1,0.3-0.3 M204,510.7v-17c0-0.2-0.1-0.3-0.3-0.3 M203.7,493.4
	h-8.5c0.2,0,0.3,0.1,0.3,0.3 M195.5,493.6v-18.4 M195.5,475.2v-17c0-0.2-0.1-0.3-0.3-0.3 M195.2,457.9L195.2,457.9"/>
<path class="st0" d="M158.5,466.5c-0.2,0-0.3-0.1-0.3-0.3 M158.3,466.2v8.9c0-0.2,0.1-0.3,0.3-0.3 M158.5,474.9h-25.9
	c0.2,0,0.3,0.1,0.3,0.3 M132.9,475.1v-8.9c0,0.2-0.1,0.3-0.3,0.3 M132.6,466.5h25.9"/>
<path class="st0" d="M116,466.5c-0.2,0-0.3-0.1-0.3-0.3 M115.7,466.2v8.9c0-0.2,0.1-0.3,0.3-0.3 M116,474.9H90.1
	c0.2,0,0.3,0.1,0.3,0.3 M90.4,475.1v-8.9c0,0.2-0.1,0.3-0.3,0.3 M90.1,466.5H116"/>
<path class="st0" d="M73.5,466.5c-0.2,0-0.3-0.1-0.3-0.3 M73.2,466.2v8.9c0-0.2,0.1-0.3,0.3-0.3 M73.5,474.9H47.6
	c0.2,0,0.3,0.1,0.3,0.3 M47.9,475.1v-8.9c0,0.2-0.1,0.3-0.3,0.3 M47.6,466.5h25.9"/>
<path class="st1" d="M195.2,457.9H10.9 M10.9,457.9c-0.2,0-0.3,0.1-0.3,0.3 M10.6,458.2v17 M10.6,475.2v18.4 M10.6,493.6
	c0-0.2,0.1-0.3,0.3-0.3 M10.9,493.4H2.4c-0.2,0-0.3,0.1-0.3,0.3 M2.1,493.6v17c0,0.2,0.1,0.3,0.3,0.3 M2.4,510.9h8.5
	c-0.2,0-0.3-0.1-0.3-0.3 M10.6,510.7v17 M10.6,527.7c0-0.2,0.1-0.3,0.3-0.3 M10.9,527.4H2.4c-0.2,0-0.3,0.1-0.3,0.3 M2.1,527.7v17
	c0,0.2,0.1,0.3,0.3,0.3 M2.4,545h8.5c-0.2,0-0.3-0.1-0.3-0.3 M10.6,544.7v17 M10.6,561.7c0-0.2,0.1-0.3,0.3-0.3 M10.9,561.4H2.4
	c-0.2,0-0.3,0.1-0.3,0.3 M2.1,561.7v17c0,0.2,0.1,0.3,0.3,0.3 M2.4,579h8.5c-0.2,0-0.3-0.1-0.3-0.3 M10.6,578.7v17 M10.6,595.7
	c0-0.2,0.1-0.3,0.3-0.3 M10.9,595.4H2.4c-0.2,0-0.3,0.1-0.3,0.3 M2.1,595.7v17c0,0.2,0.1,0.3,0.3,0.3 M2.4,613h8.5
	c-0.2,0-0.3-0.1-0.3-0.3 M10.6,612.7v18.4 M10.6,631.1v17c0,0.2,0.1,0.3,0.3,0.3 M10.9,648.4L10.9,648.4"/>
<path class="st1" d="M10.9,445.2H35 M35,445.2c-0.2,0-0.3-0.1-0.3-0.3 M34.7,444.9v8.5c0,0.2,0.1,0.3,0.3,0.3 M35,453.7h17
	c0.2,0,0.3-0.1,0.3-0.3 M52.3,453.4v-8.5c0,0.2-0.1,0.3-0.3,0.3 M52,445.2h17 M69,445.2c-0.2,0-0.3-0.1-0.3-0.3 M68.7,444.9v8.5
	c0,0.2,0.1,0.3,0.3,0.3 M69,453.7h17c0.2,0,0.3-0.1,0.3-0.3 M86.3,453.4v-8.5c0,0.2-0.1,0.3-0.3,0.3 M86,445.2h17 M103,445.2
	c-0.2,0-0.3-0.1-0.3-0.3 M102.8,444.9v8.5c0,0.2,0.1,0.3,0.3,0.3 M103,453.7h17c0.2,0,0.3-0.1,0.3-0.3 M120.3,453.4v-8.5
	c0,0.2-0.1,0.3-0.3,0.3 M120.1,445.2h17 M137.1,445.2c-0.2,0-0.3-0.1-0.3-0.3 M136.8,444.9v8.5c0,0.2,0.1,0.3,0.3,0.3 M137.1,453.7
	h17c0.2,0,0.3-0.1,0.3-0.3 M154.4,453.4v-8.5c0,0.2-0.1,0.3-0.3,0.3 M154.1,445.2h17 M171.1,445.2c-0.2,0-0.3-0.1-0.3-0.3
	 M170.8,444.9v8.5c0,0.2,0.1,0.3,0.3,0.3 M171.1,453.7h17c0.2,0,0.3-0.1,0.3-0.3 M188.4,453.4v-8.5c0,0.2-0.1,0.3-0.3,0.3
	 M188.1,445.2h17 M205.1,445.2c-0.2,0-0.3-0.1-0.3-0.3 M204.8,444.9v8.5c0,0.2,0.1,0.3,0.3,0.3 M205.1,453.7h17
	c0.2,0,0.3-0.1,0.3-0.3 M222.4,453.4v-8.5c0,0.2-0.1,0.3-0.3,0.3 M222.1,445.2h17 M239.1,445.2c-0.2,0-0.3-0.1-0.3-0.3 M238.8,444.9
	v8.5c0,0.2,0.1,0.3,0.3,0.3 M239.1,453.7h17c0.2,0,0.3-0.1,0.3-0.3 M256.4,453.4v-8.5c0,0.2-0.1,0.3-0.3,0.3 M256.1,445.2h24.1
	 M280.2,445.2c0.2,0,0.3-0.1,0.3-0.3 M280.5,444.9L280.5,444.9 M280.5,444.9v-32.6 M280.5,412.3c0,0.2-0.1,0.3-0.3,0.3 M280.2,412.6
	h8.5c0.2,0,0.3-0.1,0.3-0.3 M289,412.3v-17c0-0.2-0.1-0.3-0.3-0.3 M288.7,395h-8.5c0.2,0,0.3,0.1,0.3,0.3 M280.5,395.3v-17
	 M280.5,378.3c0,0.2-0.1,0.3-0.3,0.3 M280.2,378.6h8.5c0.2,0,0.3-0.1,0.3-0.3 M289,378.3v-17c0-0.2-0.1-0.3-0.3-0.3 M288.7,361h-8.5
	c0.2,0,0.3,0.1,0.3,0.3 M280.5,361.3v-17 M280.5,344.3c0,0.2-0.1,0.3-0.3,0.3 M280.2,344.6h8.5c0.2,0,0.3-0.1,0.3-0.3 M289,344.3
	v-17c0-0.2-0.1-0.3-0.3-0.3 M288.7,327h-8.5c0.2,0,0.3,0.1,0.3,0.3 M280.5,327.3v-17 M280.5,310.2c0,0.2-0.1,0.3-0.3,0.3
	 M280.2,310.5h8.5c0.2,0,0.3-0.1,0.3-0.3 M289,310.2v-17c0-0.2-0.1-0.3-0.3-0.3 M288.7,293h-8.5c0.2,0,0.3,0.1,0.3,0.3 M280.5,293.2
	v-32.6 M280.5,260.6c0-0.2-0.1-0.3-0.3-0.3 M280.2,260.4L280.2,260.4 M280.2,260.4h-24.1 M256.1,260.4c0.2,0,0.3,0.1,0.3,0.3
	 M256.4,260.6v-8.5c0-0.2-0.1-0.3-0.3-0.3 M256.1,251.9h-17c-0.2,0-0.3,0.1-0.3,0.3 M238.8,252.1v8.5c0-0.2,0.1-0.3,0.3-0.3
	 M239.1,260.4h-17 M222.1,260.4c0.2,0,0.3,0.1,0.3,0.3 M222.4,260.6v-8.5c0-0.2-0.1-0.3-0.3-0.3 M222.1,251.9h-17
	c-0.2,0-0.3,0.1-0.3,0.3 M204.8,252.1v8.5c0-0.2,0.1-0.3,0.3-0.3 M205.1,260.4h-17 M188.1,260.4c0.2,0,0.3,0.1,0.3,0.3 M188.4,260.6
	v-8.5c0-0.2-0.1-0.3-0.3-0.3 M188.1,251.9h-17c-0.2,0-0.3,0.1-0.3,0.3 M170.8,252.1v8.5c0-0.2,0.1-0.3,0.3-0.3 M171.1,260.4h-17
	 M154.1,260.4c0.2,0,0.3,0.1,0.3,0.3 M154.4,260.6v-8.5c0-0.2-0.1-0.3-0.3-0.3 M154.1,251.9h-17c-0.2,0-0.3,0.1-0.3,0.3
	 M136.8,252.1v8.5c0-0.2,0.1-0.3,0.3-0.3 M137.1,260.4h-17 M120.1,260.4c0.2,0,0.3,0.1,0.3,0.3 M120.3,260.6v-8.5
	c0-0.2-0.1-0.3-0.3-0.3 M120.1,251.9h-17c-0.2,0-0.3,0.1-0.3,0.3 M102.8,252.1v8.5c0-0.2,0.1-0.3,0.3-0.3 M103,260.4H86 M86,260.4
	c0.2,0,0.3,0.1,0.3,0.3 M86.3,260.6v-8.5c0-0.2-0.1-0.3-0.3-0.3 M86,251.9H69c-0.2,0-0.3,0.1-0.3,0.3 M68.7,252.1v8.5
	c0-0.2,0.1-0.3,0.3-0.3 M69,260.4H52 M52,260.4c0.2,0,0.3,0.1,0.3,0.3 M52.3,260.6v-8.5c0-0.2-0.1-0.3-0.3-0.3 M52,251.9H35
	c-0.2,0-0.3,0.1-0.3,0.3 M34.7,252.1v8.5c0-0.2,0.1-0.3,0.3-0.3 M35,260.4H10.9 M10.9,260.4c-0.2,0-0.3,0.1-0.3,0.3 M10.6,260.6
	L10.6,260.6 M10.6,260.6v32.6 M10.6,293.2c0-0.2,0.1-0.3,0.3-0.3 M10.9,293H2.4c-0.2,0-0.3,0.1-0.3,0.3 M2.1,293.2v17
	c0,0.2,0.1,0.3,0.3,0.3 M2.4,310.5h8.5c-0.2,0-0.3-0.1-0.3-0.3 M10.6,310.2v17 M10.6,327.3c0-0.2,0.1-0.3,0.3-0.3 M10.9,327H2.4
	c-0.2,0-0.3,0.1-0.3,0.3 M2.1,327.3v17c0,0.2,0.1,0.3,0.3,0.3 M2.4,344.6h8.5c-0.2,0-0.3-0.1-0.3-0.3 M10.6,344.3v17 M10.6,361.3
	c0-0.2,0.1-0.3,0.3-0.3 M10.9,361H2.4c-0.2,0-0.3,0.1-0.3,0.3 M2.1,361.3v17c0,0.2,0.1,0.3,0.3,0.3 M2.4,378.6h8.5
	c-0.2,0-0.3-0.1-0.3-0.3 M10.6,378.3v17 M10.6,395.3c0-0.2,0.1-0.3,0.3-0.3 M10.9,395H2.4c-0.2,0-0.3,0.1-0.3,0.3 M2.1,395.3v17
	c0,0.2,0.1,0.3,0.3,0.3 M2.4,412.6h8.5c-0.2,0-0.3-0.1-0.3-0.3 M10.6,412.3v32.6 M10.6,444.9c0,0.2,0.1,0.3,0.3,0.3 M10.9,445.2
	L10.9,445.2"/>
<path class="st1" d="M302,453.7c0.2,0,0.3-0.1,0.3-0.3 M302.3,453.4v-17c0,0.2-0.1,0.3-0.3,0.3 M302,436.7h51c2.5,0,2.5,3.7,0,3.7
	 M353.1,440.4h-49.3c-0.2,0-0.3,0.1-0.3,0.3 M303.5,440.7v4.3c0,0.1,0.1,0.2,0.1,0.2 M303.6,445.2l3.4,2c0.1,0.1,0.2,0.1,0.3,0
	 M307.3,447.1l3.4-2h-0.1 M310.5,445.2h235.3c-0.2,0-0.3-0.1-0.3-0.3 M545.5,444.9v8.5c0,0.2,0.1,0.3,0.3,0.3 M545.8,453.7h17
	c0.2,0,0.3-0.1,0.3-0.3 M563.1,453.4v-8.5c0,0.2-0.1,0.3-0.3,0.3 M562.8,445.2h8.5 M571.3,445.2c0.2,0,0.3-0.1,0.3-0.3 M571.6,444.9
	L571.6,444.9 M571.6,444.9V408 M571.6,408c0,0.2-0.1,0.3-0.3,0.3 M571.3,408.3h8.5c0.2,0,0.3-0.1,0.3-0.3 M580.1,408v-25.5
	c0-0.2-0.1-0.3-0.3-0.3 M579.8,382.2h-8.5c0.2,0,0.3,0.1,0.3,0.3 M571.6,382.5v-17 M571.6,365.5c0,0.2-0.1,0.3-0.3,0.3 M571.3,365.8
	h8.5c0.2,0,0.3-0.1,0.3-0.3 M580.1,365.5V340c0-0.2-0.1-0.3-0.3-0.3 M579.8,339.7h-8.5c0.2,0,0.3,0.1,0.3,0.3 M571.6,340v-17
	 M571.6,323c0,0.2-0.1,0.3-0.3,0.3 M571.3,323.3h8.5c0.2,0,0.3-0.1,0.3-0.3 M580.1,323v-25.5c0-0.2-0.1-0.3-0.3-0.3 M579.8,297.2
	h-8.5c0.2,0,0.3,0.1,0.3,0.3 M571.6,297.5v-36.9 M571.6,260.6c0-0.2-0.1-0.3-0.3-0.3 M571.3,260.4L571.3,260.4 M571.3,260.4h-8.5
	c0.2,0,0.3,0.1,0.3,0.3 M563.1,260.6v-8.5c0-0.2-0.1-0.3-0.3-0.3 M562.8,251.9h-17c-0.2,0-0.3,0.1-0.3,0.3 M545.5,252.1v8.5
	c0-0.2,0.1-0.3,0.3-0.3 M545.8,260.4H310.5h0.1 M310.7,260.4l-3.4-2c-0.1-0.1-0.2-0.1-0.3,0 M307,258.4l-3.4,2
	c-0.1,0.1-0.1,0.1-0.1,0.2 M303.5,260.6v4.3c0,0.2,0.1,0.3,0.3,0.3 M303.7,265.2H353c2.5,0,2.5,3.7,0,3.7 M353.1,268.9h-51
	c0.2,0,0.3,0.1,0.3,0.3 M302.3,269.1v-17c0-0.2-0.1-0.3-0.3-0.3 M302,251.9L302,251.9 M302,251.9h-8.5c-0.2,0-0.3,0.1-0.3,0.3
	 M293.2,252.1v8.5 M293.2,260.6v184.3 M293.2,444.9v8.5c0,0.2,0.1,0.3,0.3,0.3 M293.5,453.7h8.5"/>
<path class="st1" d="M2.4,247.6h269.3 M271.7,247.6c0.2,0,0.3-0.1,0.3-0.3 M272,247.3L272,247.3 M272,247.3V63.1 M272,63.1
	c0-0.2-0.1-0.3-0.3-0.3 M271.7,62.8L271.7,62.8 M271.7,62.8H2.4 M2.4,62.8c-0.2,0-0.3,0.1-0.3,0.3 M2.1,63.1L2.1,63.1 M2.1,63.1
	v184.3 M2.1,247.3c0,0.2,0.1,0.3,0.3,0.3 M2.4,247.6L2.4,247.6"/>
<path class="st1" d="M285,247.6h269.3 M554.3,247.6h8.5c0.2,0,0.3-0.1,0.3-0.3 M563.1,247.3v-8.5 M563.1,238.8V54.6 M563.1,54.6
	v-8.5c0-0.2-0.1-0.3-0.3-0.3 M562.8,45.8h-8.5 M554.3,45.8H285 M285,45.8h-8.5c-0.2,0-0.3,0.1-0.3,0.3 M276.2,46.1v8.5 M276.2,54.6
	v184.3 M276.2,238.8v8.5c0,0.2,0.1,0.3,0.3,0.3 M276.5,247.6h8.5"/>
<rect x="90.1" y="503" class="st2" width="25.9" height="50.2"/>
<rect x="128.6" y="562.2" class="st2" width="41.7" height="61.5"/>
<rect x="353.7" y="790.9" class="st2" width="114.9" height="30.8"/>
</svg>
